# xmcd
#
# Track frame offsets:
#	150
#	11895
#	30280
#	44573
#	65682
#	84893
#	98368
#	125293
#	143666
#
# Disc length: 2303 seconds
#
# Revision: 1
# Processed by: cddbd v1.5.2PL0 Copyright (c) Steve Scherf et al.
# Submitted via: audiograbber 1.83.01
#
DISCID=6708fd09
DTITLE=Wolfgirl - Wolfgirl
DYEAR=2012
DGENRE=Hard Rock
TTITLE0=Basorexia
TTITLE1=An Unfortunate Dick
TTITLE2=Monkulus
TTITLE3=Crow Melt
TTITLE4=Song For You
TTITLE5=We're NOT Alright
TTITLE6=The Girl Who Said She Loved Me
TTITLE7=Wolfliner
TTITLE8=Deathwülf
EXTD=
EXTT0=
EXTT1=
EXTT2=
EXTT3=
EXTT4=
EXTT5=
EXTT6=
EXTT7=
EXTT8=
PLAYORDER=
